<svg width="1024" height="1024" xmlns="http://www.w3.org/2000/svg">
 <g>
  <title>Layer 1</title>
  <path fill="#fff" d="m287,224.75" id="svg_1"/>
  <path id="svg_3" d="m202,229.75" fill="#fff"/>
  <path id="svg_8" d="m348.01399,233.5822" fill="#fff"/>
  <g transform="rotate(35, 546.099, 512)" id="svg_9">
   <g id="svg_10">
    <g id="svg_6">
     <path id="svg_5" d="m126.05381,553.93929c-6.8447,14.33183 -14.30817,28.66366 -21.15288,42.99549c-15.05666,55.68898 115.2968,84.77099 168.30445,87.24605c170.98578,-3.50634 335.78389,-2.68131 512.95733,-1.23754c142.93503,-18.76925 201.09907,-64.14545 202.33661,-87.86482c-4.74388,-7.42519 -81.88342,43.93241 -185.62991,40.21981c-116.53434,-11.75655 -174.90463,-47.02624 -301.95799,-53.83268c-41.21281,-1.544 -128.21435,22.90021 -208.40946,21.97499c-108.07786,-7.8377 -166.65442,-51.56388 -166.44816,-49.50131z" fill="#fff"/>
     <path id="svg_4" d="m162.86938,354.07978c-11.58858,4.01905 10.23623,101.47185 -23.62794,175.41149c137.77864,82.50219 241.52514,35.06343 350.84053,25.98818c97.35257,-5.98141 223.16841,52.38888 327.32742,54.45144c105.60279,-6.60018 162.94182,-36.09471 166.44816,-45.78872c-2.88757,-20.8318 -44.75744,-34.85717 -64.35171,-36.50722c-103.33399,-14.02537 -134.27231,-27.43198 -194.9114,-50.73885c-146.23512,-64.76422 -140.87247,-76.31452 -212.85563,-119.42191c-90.75241,-71.98316 -88.68985,99.82765 -216.56824,93.43372c-117.32108,-17.83817 -118.31408,-95.69669 -132.30119,-96.82817l0,0.00002z" fill="#fff"/>
    </g>
   </g>
  </g>
 </g>

</svg>